<svg width="40" height="57" viewBox="0 0 40 57" fill="none" xmlns="http://www.w3.org/2000/svg">
<path d="M7.01758 52.0137H3.71289L3.02148 54H1.48047L4.70312 45.4688H6.0332L9.26172 54H7.71484L7.01758 52.0137ZM4.12891 50.8184H6.60156L5.36523 47.2793L4.12891 50.8184ZM15.6602 50.8945C15.6602 51.8789 15.4395 52.6621 14.998 53.2441C14.5605 53.8262 13.957 54.1172 13.1875 54.1172C12.4453 54.1172 11.8672 53.8496 11.4531 53.3145L11.3828 54H10.0938V45H11.5176V48.2695C11.9277 47.7852 12.4805 47.543 13.1758 47.543C13.9492 47.543 14.5566 47.8301 14.998 48.4043C15.4395 48.9785 15.6602 49.7812 15.6602 50.8125V50.8945ZM14.2363 50.7715C14.2363 50.084 14.1152 49.5684 13.873 49.2246C13.6309 48.8809 13.2793 48.709 12.8184 48.709C12.2012 48.709 11.7676 48.9785 11.5176 49.5176V52.1309C11.7715 52.6816 12.209 52.957 12.8301 52.957C13.2754 52.957 13.6191 52.791 13.8613 52.459C14.1035 52.127 14.2285 51.625 14.2363 50.9531V50.7715ZM16.5918 50.7715C16.5918 50.1504 16.7148 49.5918 16.9609 49.0957C17.207 48.5957 17.5527 48.2129 17.998 47.9473C18.4434 47.6777 18.9551 47.543 19.5332 47.543C20.3887 47.543 21.082 47.8184 21.6133 48.3691C22.1484 48.9199 22.4375 49.6504 22.4805 50.5605L22.4863 50.8945C22.4863 51.5195 22.3652 52.0781 22.123 52.5703C21.8848 53.0625 21.541 53.4434 21.0918 53.7129C20.6465 53.9824 20.1309 54.1172 19.5449 54.1172C18.6504 54.1172 17.9336 53.8203 17.3945 53.2266C16.8594 52.6289 16.5918 51.834 16.5918 50.8418V50.7715ZM18.0156 50.8945C18.0156 51.5469 18.1504 52.0586 18.4199 52.4297C18.6895 52.7969 19.0645 52.9805 19.5449 52.9805C20.0254 52.9805 20.3984 52.793 20.6641 52.418C20.9336 52.043 21.0684 51.4941 21.0684 50.7715C21.0684 50.1309 20.9297 49.623 20.6523 49.248C20.3789 48.873 20.0059 48.6855 19.5332 48.6855C19.0684 48.6855 18.6992 48.8711 18.4258 49.2422C18.1523 49.6094 18.0156 50.1602 18.0156 50.8945ZM27.5312 53.3789C27.1133 53.8711 26.5195 54.1172 25.75 54.1172C25.0625 54.1172 24.541 53.916 24.1855 53.5137C23.834 53.1113 23.6582 52.5293 23.6582 51.7676V47.6602H25.082V51.75C25.082 52.5547 25.416 52.957 26.084 52.957C26.7754 52.957 27.2422 52.709 27.4844 52.2129V47.6602H28.9082V54H27.5664L27.5312 53.3789ZM32.1426 46.1191V47.6602H33.2617V48.7148H32.1426V52.2539C32.1426 52.4961 32.1895 52.6719 32.2832 52.7812C32.3809 52.8867 32.5527 52.9395 32.7988 52.9395C32.9629 52.9395 33.1289 52.9199 33.2969 52.8809V53.9824C32.9727 54.0723 32.6602 54.1172 32.3594 54.1172C31.2656 54.1172 30.7188 53.5137 30.7188 52.3066V48.7148H29.6758V47.6602H30.7188V46.1191H32.1426Z" fill="#564F4F"/>
<path d="M37.54 29.6112V5.99204C37.54 5.71197 37.4136 5.44337 37.1885 5.24533C36.9635 5.04729 36.6583 4.93604 36.34 4.93604H3.65999C3.34173 4.93604 3.03651 5.04729 2.81146 5.24533C2.58642 5.44337 2.45999 5.71197 2.45999 5.99204V35.208C2.45997 35.4263 2.53677 35.6391 2.67984 35.8174C2.82291 35.9956 3.02522 36.1305 3.25894 36.2034C3.49267 36.2763 3.74632 36.2838 3.98504 36.2246C4.22375 36.1655 4.43578 36.0428 4.59199 35.8733L9.39199 30.6672H36.34C36.6583 30.6672 36.9635 30.556 37.1885 30.3579C37.4136 30.1599 37.54 29.8913 37.54 29.6112ZM35.14 28.5552H8.79999C8.62139 28.5552 8.44504 28.5903 8.28381 28.6579C8.12257 28.7255 7.98051 28.8239 7.86799 28.946L4.85999 32.216V7.04803H35.14V28.5552Z" fill="#564F4F"/>
<path d="M21.2 15.7318H18.8V24.6374H21.2V15.7318Z" fill="#564F4F"/>
<path d="M21.2 11.1559H18.8V13.7255H21.2V11.1559Z" fill="#564F4F"/>
</svg>
