<svg width="35" height="55" viewBox="0 0 35 55" fill="none" xmlns="http://www.w3.org/2000/svg">
<path d="M5.66406 49.4137H2.35938L1.66797 51.4H0.126953L3.34961 42.8688H4.67969L7.9082 51.4H6.36133L5.66406 49.4137ZM2.77539 48.2184H5.24805L4.01172 44.6793L2.77539 48.2184ZM8.47656 48.1832C8.47656 47.2067 8.70312 46.4235 9.15625 45.8336C9.60938 45.2399 10.2168 44.943 10.9785 44.943C11.6504 44.943 12.1934 45.1774 12.6074 45.6461V42.4H14.0312V51.4H12.7422L12.6719 50.7438C12.2461 51.2594 11.6777 51.5172 10.9668 51.5172C10.2246 51.5172 9.62305 51.2184 9.16211 50.6207C8.70508 50.0231 8.47656 49.2106 8.47656 48.1832ZM9.90039 48.3063C9.90039 48.9508 10.0234 49.4547 10.2695 49.818C10.5195 50.1774 10.873 50.3571 11.3301 50.3571C11.9121 50.3571 12.3379 50.0973 12.6074 49.5778V46.8707C12.3457 46.3629 11.9238 46.109 11.3418 46.109C10.8809 46.109 10.5254 46.2926 10.2754 46.6598C10.0254 47.0231 9.90039 47.5719 9.90039 48.3063ZM16.8555 45.0602L16.8965 45.7223C17.3418 45.2028 17.9512 44.943 18.7246 44.943C19.5723 44.943 20.1523 45.2672 20.4648 45.9156C20.9258 45.2672 21.5742 44.943 22.4102 44.943C23.1094 44.943 23.6289 45.1364 23.9688 45.5231C24.3125 45.9098 24.4883 46.4801 24.4961 47.234V51.4H23.0723V47.275C23.0723 46.8727 22.9844 46.5778 22.8086 46.3903C22.6328 46.2028 22.3418 46.109 21.9355 46.109C21.6113 46.109 21.3457 46.1969 21.1387 46.3727C20.9355 46.5446 20.793 46.7711 20.7109 47.0524L20.7168 51.4H19.293V47.2281C19.2734 46.4821 18.8926 46.109 18.1504 46.109C17.5801 46.109 17.1758 46.3414 16.9375 46.8063V51.4H15.5137V45.0602H16.8555ZM27.4727 51.4H26.0488V45.0602H27.4727V51.4ZM25.9609 43.4137C25.9609 43.1949 26.0293 43.0133 26.166 42.8688C26.3066 42.7242 26.5059 42.652 26.7637 42.652C27.0215 42.652 27.2207 42.7242 27.3613 42.8688C27.502 43.0133 27.5723 43.1949 27.5723 43.4137C27.5723 43.6285 27.502 43.8082 27.3613 43.9528C27.2207 44.0934 27.0215 44.1637 26.7637 44.1637C26.5059 44.1637 26.3066 44.0934 26.166 43.9528C26.0293 43.8082 25.9609 43.6285 25.9609 43.4137ZM30.3496 45.0602L30.3906 45.7926C30.8594 45.2262 31.4746 44.943 32.2363 44.943C33.5566 44.943 34.2285 45.6989 34.252 47.2106V51.4H32.8281V47.2926C32.8281 46.8903 32.7402 46.5934 32.5645 46.402C32.3926 46.2067 32.1094 46.109 31.7148 46.109C31.1406 46.109 30.7129 46.3688 30.4316 46.8883V51.4H29.0078V45.0602H30.3496Z" fill="#564F4F"/>
<path d="M31.5221 12.7468H30.6142C30.3963 12.0932 30.1421 11.4758 29.8153 10.9311L30.4689 10.2774C31.0137 9.73263 31.3405 8.97 31.3405 8.17105C31.3405 7.37211 31.0137 6.64579 30.4689 6.06474L28.3626 3.95842C27.2005 2.79632 25.3121 2.79632 24.15 3.95842L23.5326 4.61211C22.9516 4.32158 22.2979 4.06737 21.6805 3.88579V2.9779C21.6805 1.34368 20.3368 0 18.7026 0H15.7247C14.0905 0 12.7468 1.34368 12.7468 2.9779V3.88579C12.0932 4.10368 11.4758 4.35789 10.9311 4.68474L10.2774 4.03105C9.15158 2.90526 7.19053 2.90526 6.06474 4.03105L3.95842 6.13737C2.79632 7.29947 2.79632 9.18789 3.95842 10.35L4.61211 10.9674C4.32158 11.5484 4.06737 12.2021 3.88579 12.8195H2.97789C1.34368 12.8195 0 14.1632 0 15.7974V18.7753C0 20.4095 1.34368 21.7532 2.97789 21.7532H3.88579C4.10368 22.4068 4.35789 23.0242 4.68474 23.5689L4.03105 24.2226C2.86895 25.3847 2.86895 27.2732 4.03105 28.4353L6.13737 30.5416C7.26316 31.6674 9.22421 31.6674 10.35 30.5416L10.9674 29.8879C11.5484 30.1784 12.2021 30.4326 12.8195 30.6142V31.5221C12.8195 33.1563 14.1632 34.5 15.7974 34.5H18.7753C20.4095 34.5 21.7532 33.1563 21.7532 31.5221V30.6142C22.4068 30.3963 23.0242 30.1421 23.5689 29.8153L24.2226 30.4689C25.3484 31.5947 27.3095 31.5947 28.4353 30.4689L30.5416 28.3626C31.7037 27.2005 31.7037 25.3121 30.5416 24.15L29.8879 23.5326C30.1784 22.9516 30.4326 22.2979 30.6142 21.6805H31.5221C33.1563 21.6805 34.5 20.3368 34.5 18.7026V15.7247C34.5 14.0542 33.1563 12.7468 31.5221 12.7468ZM32.6116 18.6663C32.6116 19.2474 32.1395 19.7195 31.5584 19.7195H30.6505C29.8516 19.7195 29.1253 20.2279 28.8711 21.0268C28.6895 21.5716 28.4716 22.1163 28.2174 22.6247C27.8542 23.3511 27.9995 24.2226 28.5442 24.8037L29.1979 25.4574C29.5974 25.8568 29.5974 26.5468 29.1979 26.9826L27.0553 29.0889C26.6558 29.4884 25.9295 29.4884 25.53 29.0889L24.9126 28.4716C24.3316 27.8905 23.46 27.7816 22.7337 28.1447C22.2253 28.3989 21.6805 28.6168 21.1358 28.7984C20.3732 29.0526 19.8284 29.7789 19.8284 30.5779V31.5221C19.8284 32.1032 19.3563 32.5753 18.7753 32.5753H15.7974C15.2163 32.5753 14.7442 32.1032 14.7442 31.5221V30.6142C14.7442 29.8153 14.2358 29.0889 13.4368 28.8347C12.8921 28.6532 12.3474 28.4353 11.8389 28.1811C11.5847 28.0358 11.2579 27.9632 11.0037 27.9632C10.4589 27.9268 9.98684 28.1084 9.62368 28.4716L8.97 29.1253C8.57053 29.5247 7.88053 29.5247 7.44474 29.1253L5.37474 27.0189C4.97526 26.6195 4.97526 25.9295 5.37474 25.4937L6.02842 24.84C6.60947 24.2589 6.71842 23.3874 6.35526 22.6611C6.10105 22.1526 5.88316 21.6079 5.70158 21.0632C5.44737 20.3005 4.72105 19.7558 3.92211 19.7558H2.97789C2.39684 19.7558 1.92474 19.2837 1.92474 18.7026V15.7611C1.92474 15.18 2.39684 14.7079 2.97789 14.7079H3.88579C4.68474 14.7079 5.41105 14.1995 5.66526 13.4005C5.84684 12.8558 6.06474 12.3111 6.31895 11.8026C6.68211 11.0763 6.53684 10.2047 5.99211 9.62368L5.33842 8.97C4.93895 8.57053 4.93895 7.88053 5.33842 7.44474L7.44474 5.33842C7.84421 4.93895 8.57053 4.93895 8.97 5.33842L9.62368 5.99211C10.2047 6.57316 11.0763 6.68211 11.8026 6.31895C12.3111 6.06474 12.8558 5.84684 13.4005 5.66526C14.1632 5.41105 14.7079 4.68474 14.7079 3.88579V2.94158C14.7079 2.36053 15.18 1.88842 15.7611 1.88842H18.7026C19.2837 1.88842 19.7558 2.36053 19.7558 2.94158V3.84947C19.7558 4.64842 20.2642 5.37474 21.0632 5.62895C21.6079 5.81053 22.1526 6.02842 22.6611 6.28263C23.3874 6.64579 24.2589 6.50053 24.84 5.95579L25.4937 5.30211C25.8932 4.90263 26.5832 4.90263 27.0189 5.30211L29.1253 7.40842C29.3432 7.62632 29.4521 7.88053 29.4521 8.17105C29.4521 8.46158 29.3432 8.71579 29.1253 8.93368L28.5079 9.55105C27.9268 10.1321 27.8179 11.0037 28.1811 11.73C28.4353 12.2384 28.6532 12.7832 28.8347 13.3279C29.0889 14.0905 29.8153 14.6353 30.6142 14.6353H31.5584C32.1395 14.6353 32.6116 15.1074 32.6116 15.6884V18.6663Z" fill="#564F4F"/>
<path d="M17.25 9.2605C12.8558 9.2605 9.29684 12.8194 9.29684 17.2137C9.29684 21.6079 12.8558 25.1668 17.25 25.1668C21.6442 25.1668 25.2032 21.6079 25.2032 17.2137C25.2032 12.8194 21.6442 9.2605 17.25 9.2605ZM17.25 23.2784C13.9089 23.2784 11.1853 20.5547 11.1853 17.2137C11.1853 13.8726 13.9089 11.1489 17.25 11.1489C20.5911 11.1489 23.3147 13.8726 23.3147 17.2137C23.3147 20.5547 20.5911 23.2784 17.25 23.2784Z" fill="#564F4F"/>
</svg>
