<svg width="35" height="53" viewBox="0 0 35 53" fill="none" xmlns="http://www.w3.org/2000/svg">
<path d="M9.01562 50H7.53906V46.209H3.72461V50H2.24219V41.4688H3.72461V45.0195H7.53906V41.4688H9.01562V50ZM10.3691 46.7715C10.3691 46.1504 10.4922 45.5918 10.7383 45.0957C10.9844 44.5957 11.3301 44.2129 11.7754 43.9473C12.2207 43.6777 12.7324 43.543 13.3105 43.543C14.166 43.543 14.8594 43.8184 15.3906 44.3691C15.9258 44.9199 16.2148 45.6504 16.2578 46.5605L16.2637 46.8945C16.2637 47.5195 16.1426 48.0781 15.9004 48.5703C15.6621 49.0625 15.3184 49.4434 14.8691 49.7129C14.4238 49.9824 13.9082 50.1172 13.3223 50.1172C12.4277 50.1172 11.7109 49.8203 11.1719 49.2266C10.6367 48.6289 10.3691 47.834 10.3691 46.8418V46.7715ZM11.793 46.8945C11.793 47.5469 11.9277 48.0586 12.1973 48.4297C12.4668 48.7969 12.8418 48.9805 13.3223 48.9805C13.8027 48.9805 14.1758 48.793 14.4414 48.418C14.7109 48.043 14.8457 47.4941 14.8457 46.7715C14.8457 46.1309 14.707 45.623 14.4297 45.248C14.1562 44.873 13.7832 44.6855 13.3105 44.6855C12.8457 44.6855 12.4766 44.8711 12.2031 45.2422C11.9297 45.6094 11.793 46.1602 11.793 46.8945ZM18.8066 43.6602L18.8477 44.3223C19.293 43.8027 19.9023 43.543 20.6758 43.543C21.5234 43.543 22.1035 43.8672 22.416 44.5156C22.877 43.8672 23.5254 43.543 24.3613 43.543C25.0605 43.543 25.5801 43.7363 25.9199 44.123C26.2637 44.5098 26.4395 45.0801 26.4473 45.834V50H25.0234V45.875C25.0234 45.4727 24.9355 45.1777 24.7598 44.9902C24.584 44.8027 24.293 44.709 23.8867 44.709C23.5625 44.709 23.2969 44.7969 23.0898 44.9727C22.8867 45.1445 22.7441 45.3711 22.6621 45.6523L22.668 50H21.2441V45.8281C21.2246 45.082 20.8438 44.709 20.1016 44.709C19.5312 44.709 19.127 44.9414 18.8887 45.4062V50H17.4648V43.6602H18.8066ZM30.7012 50.1172C29.7988 50.1172 29.0664 49.834 28.5039 49.2676C27.9453 48.6973 27.666 47.9395 27.666 46.9941V46.8184C27.666 46.1855 27.7871 45.6211 28.0293 45.125C28.2754 44.625 28.6191 44.2363 29.0605 43.959C29.502 43.6816 29.9941 43.543 30.5371 43.543C31.4004 43.543 32.0664 43.8184 32.5352 44.3691C33.0078 44.9199 33.2441 45.6992 33.2441 46.707V47.2812H29.1016C29.1445 47.8047 29.3184 48.2188 29.623 48.5234C29.9316 48.8281 30.3184 48.9805 30.7832 48.9805C31.4355 48.9805 31.9668 48.7168 32.377 48.1895L33.1445 48.9219C32.8906 49.3008 32.5508 49.5957 32.125 49.8066C31.7031 50.0137 31.2285 50.1172 30.7012 50.1172ZM30.5312 44.6855C30.1406 44.6855 29.8242 44.8223 29.582 45.0957C29.3438 45.3691 29.1914 45.75 29.125 46.2383H31.8379V46.1328C31.8066 45.6562 31.6797 45.2969 31.457 45.0547C31.2344 44.8086 30.9258 44.6855 30.5312 44.6855Z" fill="#B7B7B7"/>
<path d="M17.8988 3L31.7977 16.3468L30.25 17.8312L28.8363 16.4741V29.0702H6.96132V16.4741L5.54765 17.8312L4 16.3468L17.8988 3ZM17.8988 5.97019L9.14882 14.3741V26.9702H26.6488V14.3741L17.8988 5.97019Z" fill="#B7B7B7"/>
</svg>
